ply
format ascii 1.0
element vertex 5
property float x
property float y
property float z
property float nx
property float ny
property float nz
property float f_dc_0
property float f_dc_1
property float f_dc_2
property float opacity
property float scale_0
property float scale_1
property float scale_2
property float rot_0
property float rot_1
property float rot_2
property float rot_3
end_header
0.00 0.00 0.00 0 0 0 1.20 0.30 0.15 2.00 -2.40 -2.40 -2.40 1 0 0 0
0.35 0.05 0.00 0 0 0 0.15 0.95 1.20 2.00 -2.50 -2.50 -2.50 1 0 0 0
-0.35 0.05 0.00 0 0 0 1.15 0.15 0.95 2.00 -2.50 -2.50 -2.50 1 0 0 0
0.00 0.45 0.00 0 0 0 1.20 1.05 0.20 2.00 -2.45 -2.45 -2.45 1 0 0 0
0.00 -0.35 0.10 0 0 0 0.15 1.10 0.35 2.00 -2.45 -2.45 -2.45 1 0 0 0
